<svg xmlns="http://www.w3.org/2000/svg" viewBox="0 0 512 512" role="img" aria-label="BlueBlack fountain pen and ink icon">
  <defs>
    <linearGradient id="bg" x1="0" y1="0" x2="1" y2="1">
      <stop offset="0" stop-color="#173d70"/>
      <stop offset="1" stop-color="#0a2447"/>
    </linearGradient>
  </defs>
  <rect width="512" height="512" rx="104" fill="url(#bg)"/>
  <g fill="#fff">
    <path d="M109 392 197 154l91-61 51 61-101 203-77 58-52-23Z"/>
    <path d="m206 135 45-72 66 34-22 44-89-6Z"/>
    <rect x="287" y="286" width="113" height="39" rx="9"/>
    <rect x="263" y="340" width="162" height="126" rx="17"/>
  </g>
  <circle cx="229" cy="238" r="14" fill="#0d2c56"/>
  <path d="M229 252 157 390" fill="none" stroke="#0d2c56" stroke-width="10" stroke-linecap="round"/>
  <path d="M157 390c-20 20-43 42-43 56 0 14 12 22 29 22h76" fill="none" stroke="#fff" stroke-width="14" stroke-linecap="round" stroke-linejoin="round"/>
</svg>
